<?xml version="1.0" encoding="UTF-8"?>
<!DOCTYPE svg PUBLIC "-//W3C//DTD SVG 1.1//EN" "http://www.w3.org/Graphics/SVG/1.1/DTD/svg11.dtd">
<svg xmlns="http://www.w3.org/2000/svg" version="1.1" width="1722px" height="1169px" style="shape-rendering:geometricPrecision; text-rendering:geometricPrecision; image-rendering:optimizeQuality; fill-rule:evenodd; clip-rule:evenodd" xmlns:xlink="http://www.w3.org/1999/xlink">
<g><path style="opacity:0.971" fill="#fefffe" d="M 417.5,42.5 C 419.5,42.5 421.5,42.5 423.5,42.5C 423.372,44.6547 423.872,46.6547 425,48.5C 474.675,97.8762 524.342,147.21 574,196.5C 574.667,197.5 574.667,198.5 574,199.5C 556.5,217 539,234.5 521.5,252C 519.421,252.808 517.421,252.641 515.5,251.5C 483.852,220.352 452.352,189.019 421,157.5C 386.108,191.392 351.608,225.559 317.5,260C 424.225,366.725 531.058,473.558 638,580.5C 638.667,582.167 638.667,583.833 638,585.5C 565.187,657.314 492.853,729.314 421,801.5C 293.869,675.208 168.036,549.041 43.5,423C 44.3597,419.799 46.3597,417.465 49.5,416C 64.4982,400.002 79.8316,384.335 95.5,369C 97.3697,367.436 99.3697,367.436 101.5,369C 207.203,474.868 313.869,581.368 421.5,688.5C 456.153,653.347 490.986,618.347 526,583.5C 526.667,582.833 526.667,582.167 526,581.5C 418.986,474.32 311.82,367.32 204.5,260.5C 274.695,189.827 344.862,119.827 415,50.5C 417.023,48.2307 417.856,45.5641 417.5,42.5 Z"/></g>
<g><path style="opacity:0.967" fill="#fefffe" d="M 751.5,46.5 C 752.873,46.3433 754.207,46.51 755.5,47C 800.027,91.527 844.527,136.027 889,180.5C 889.781,181.944 889.614,183.277 888.5,184.5C 870.473,202.361 852.307,220.027 834,237.5C 807.026,211.36 780.193,185.027 753.5,158.5C 668.987,243.513 584.32,328.347 499.5,413C 498.5,413.667 497.5,413.667 496.5,413C 478.986,395.319 461.319,377.819 443.5,360.5C 442.386,359.277 442.219,357.944 443,356.5C 546.823,253.179 649.657,149.846 751.5,46.5 Z"/></g>
<g><path style="opacity:0.97" fill="#fefffe" d="M 1050.5,46.5 C 1052.29,46.2148 1053.95,46.5481 1055.5,47.5C 1095.49,87.9863 1135.65,128.32 1176,168.5C 1216.37,128.293 1256.54,87.9593 1296.5,47.5C 1297.72,46.3861 1299.06,46.2195 1300.5,47C 1426.51,172.507 1551.84,298.34 1676.5,424.5C 1552.62,549.876 1428.29,674.709 1303.5,799C 1301.7,800.441 1299.7,800.608 1297.5,799.5C 1298.29,762.847 1298.79,726.18 1299,689.5C 1387.64,600.689 1476.14,512.355 1564.5,424.5C 1476.56,335.979 1387.89,247.312 1298.5,158.5C 1258.32,198.847 1218.32,239.347 1178.5,280C 1176.5,280.667 1174.5,280.667 1172.5,280C 1133.75,239.238 1093.91,198.738 1053,158.5C 964.748,246.752 876.414,335.086 788,423.5C 787.333,424.167 787.333,424.833 788,425.5C 822.205,459.372 856.039,493.538 889.5,528C 887.711,530.467 885.878,532.967 884,535.5C 867.86,551.306 851.693,567.139 835.5,583C 834.5,583.667 833.5,583.667 832.5,583C 780.225,530.391 727.725,478.224 675,426.5C 674.333,425.167 674.333,423.833 675,422.5C 799.045,298.79 923.712,174.456 1049,49.5C 1049.51,48.4734 1050.01,47.4734 1050.5,46.5 Z"/></g>
<g><path style="opacity:0.959" fill="#fefffe" d="M 980.5,255.5 C 981.5,255.5 982.5,255.5 983.5,255.5C 983.579,256.93 983.246,258.264 982.5,259.5C 984.197,260.364 985.363,261.697 986,263.5C 1049.11,326.623 1112.28,389.623 1175.5,452.5C 1239.87,388.822 1304.04,324.822 1368,260.5C 1367.98,258.893 1367.81,257.226 1367.5,255.5C 1368.87,255.343 1370.21,255.51 1371.5,256C 1389.65,273.987 1407.65,292.154 1425.5,310.5C 1426.79,311.098 1428.13,311.598 1429.5,312C 1429.97,313.299 1429.97,314.799 1429.5,316.5C 1427.8,316.34 1426.13,316.506 1424.5,317C 1354.67,386.5 1285.17,456.334 1216,526.5C 1216.66,622.779 1216.66,719.113 1216,815.5C 1214.85,816.743 1213.51,817.743 1212,818.5C 1187,817.167 1162,817.167 1137,818.5C 1136.67,817.833 1136.33,817.167 1136,816.5C 1135.65,719.74 1135.65,623.073 1136,526.5C 1066.22,456.721 996.387,386.887 926.5,317C 925.552,316.517 924.552,316.351 923.5,316.5C 923.5,314.5 923.5,312.5 923.5,310.5C 924.552,310.649 925.552,310.483 926.5,310C 944.702,291.965 962.702,273.799 980.5,255.5 Z"/></g>
<g><path style="opacity:0.004" fill="#fefffe" d="M 1061.5,335.5 C 1062.19,334.226 1063.02,334.226 1064,335.5C 1064.67,336.5 1064.67,337.5 1064,338.5C 1063.15,337.429 1062.31,336.429 1061.5,335.5 Z"/></g>
<g><path style="opacity:0.968" fill="#fefffe" d="M 968.5,472.5 C 971.305,471.155 973.139,472.155 974,475.5C 991.266,492.932 1008.77,510.266 1026.5,527.5C 1027.58,528.365 1027.75,529.365 1027,530.5C 936.653,620.68 846.486,711.014 756.5,801.5C 754.926,802.631 753.259,802.798 751.5,802C 702,751.167 651.833,701 601,651.5C 600.03,648.173 601.197,646.007 604.5,645C 621.709,627.624 639.042,610.457 656.5,593.5C 688.626,625.126 720.626,656.959 752.5,689C 753.5,689.667 754.5,689.667 755.5,689C 827.321,617.679 898.654,545.846 969.5,473.5C 969.376,472.893 969.043,472.56 968.5,472.5 Z"/></g>
<g><path style="opacity:0.944" fill="#fefffe" d="M 971.5,610.5 C 972.922,610.709 974.255,611.209 975.5,612C 1001.64,638.14 1027.81,664.306 1054,690.5C 1054.5,726.832 1054.67,763.165 1054.5,799.5C 1051.13,800.663 1048.13,799.829 1045.5,797C 1003.39,754.221 960.887,711.721 918,669.5C 917.333,667.833 917.333,666.167 918,664.5C 936.035,646.632 953.868,628.632 971.5,610.5 Z"/></g>
<g><path style="opacity:0.924" fill="#fefffe" d="M 105.5,918.5 C 131.268,914.934 153.768,921.601 173,938.5C 178.599,944.695 182.933,951.695 186,959.5C 187.841,964.366 188.508,969.366 188,974.5C 176.915,975.487 165.748,975.821 154.5,975.5C 152.896,961.386 145.229,952.219 131.5,948C 117.071,943.872 103.404,945.539 90.5,953C 78.1494,965.013 76.316,978.513 85,993.5C 87.894,996.361 91.0607,998.861 94.5,1001C 115.176,1008.74 136.176,1015.74 157.5,1022C 188.386,1038.29 197.886,1063.12 186,1096.5C 175.213,1115.65 159.047,1127.65 137.5,1132.5C 105.187,1138.3 78.0206,1129.3 56,1105.5C 50.0572,1096.42 46.5572,1086.42 45.5,1075.5C 46.0402,1074.25 46.7069,1073.09 47.5,1072C 58.1615,1071.5 68.8281,1071.33 79.5,1071.5C 80.7689,1088.86 89.7689,1100.03 106.5,1105C 123.531,1108.63 138.698,1105.13 152,1094.5C 158.182,1085.42 160.182,1075.42 158,1064.5C 154.418,1055.29 147.918,1049.12 138.5,1046C 120.829,1040.5 103.162,1035.17 85.5,1030C 50.8307,1014.7 39.8307,989.03 52.5,953C 64.6286,932.939 82.2952,921.439 105.5,918.5 Z"/></g>
<g><path style="opacity:0.922" fill="#fefffe" d="M 340.5,918.5 C 375.572,915.127 405.739,925.461 431,949.5C 439.613,959.102 446.113,969.936 450.5,982C 450.245,983.326 449.578,984.326 448.5,985C 437.833,985.667 427.167,985.667 416.5,985C 413.58,982.966 411.747,980.132 411,976.5C 397.197,956.076 377.863,946.076 353,946.5C 313.032,948.459 289.032,969.126 281,1008.5C 277.257,1031.59 280.924,1053.25 292,1073.5C 312.443,1100.29 339.276,1110.12 372.5,1103C 392.615,1097.88 406.948,1085.88 415.5,1067C 426.88,1066.19 438.213,1066.36 449.5,1067.5C 450.631,1069.07 450.798,1070.74 450,1072.5C 434.192,1106.51 407.692,1126.68 370.5,1133C 331.371,1137.19 298.538,1125.02 272,1096.5C 246.036,1061.2 240.703,1022.86 256,981.5C 272.901,945.437 301.068,924.437 340.5,918.5 Z"/></g>
<g><path style="opacity:0.924" fill="#fefffe" d="M 1326.5,918.5 C 1364.46,915.859 1395.63,928.859 1420,957.5C 1425.43,965.197 1429.93,973.363 1433.5,982C 1433.25,983.326 1432.58,984.326 1431.5,985C 1420.5,985.667 1409.5,985.667 1398.5,985C 1389.15,965.99 1374.15,953.99 1353.5,949C 1328.04,944.033 1305.37,949.699 1285.5,966C 1267.64,985.205 1260.14,1008.04 1263,1034.5C 1268.11,1078.11 1292.61,1101.44 1336.5,1104.5C 1376.46,1102.54 1399.79,1081.88 1406.5,1042.5C 1379.07,1041.55 1351.73,1041.21 1324.5,1041.5C 1323.88,1032.73 1324.55,1024.23 1326.5,1016C 1363.83,1015.33 1401.17,1015.33 1438.5,1016C 1443.53,1054.89 1430.86,1086.89 1400.5,1112C 1362.37,1138.09 1322.7,1140.42 1281.5,1119C 1243.8,1093.64 1226.97,1058.14 1231,1012.5C 1237.71,966.459 1263.21,936.292 1307.5,922C 1313.93,920.597 1320.27,919.43 1326.5,918.5 Z"/></g>
<g><path style="opacity:0.924" fill="#fefffe" d="M 789.5,920.5 C 799.839,920.334 810.172,920.5 820.5,921C 821,921.5 821.5,922 822,922.5C 838.032,955.851 854.032,989.184 870,1022.5C 887.355,988.793 903.855,954.793 919.5,920.5C 930.505,920.333 941.505,920.5 952.5,921C 953.059,921.725 953.392,922.558 953.5,923.5C 931.336,965.828 909.169,1008.16 887,1050.5C 886.667,1077.17 886.333,1103.83 886,1130.5C 876,1131.83 866,1131.83 856,1130.5C 855.667,1104.17 855.333,1077.83 855,1051.5C 833.002,1009.21 810.669,967.21 788,925.5C 787.387,923.505 787.887,921.838 789.5,920.5 Z"/></g>
<g><path style="opacity:0.924" fill="#fefffe" d="M 1010.5,920.5 C 1019.84,920.334 1029.17,920.5 1038.5,921C 1039,921.5 1039.5,922 1040,922.5C 1040.33,970.167 1040.67,1017.83 1041,1065.5C 1045.4,1092.56 1061.4,1105.89 1089,1105.5C 1120.31,1104.85 1136.31,1088.85 1137,1057.5C 1137.33,1012.17 1137.67,966.833 1138,921.5C 1148,920.167 1158,920.167 1168,921.5C 1168.31,922.766 1168.81,923.933 1169.5,925C 1168.67,973.096 1168.17,1021.26 1168,1069.5C 1161.18,1103.82 1140.68,1124.82 1106.5,1132.5C 1084.73,1135.98 1064.06,1132.82 1044.5,1123C 1022.2,1108.24 1010.36,1087.41 1009,1060.5C 1008.33,1014.5 1008.33,968.5 1009,922.5C 1009.72,921.956 1010.22,921.289 1010.5,920.5 Z"/></g>
<g><path style="opacity:0.924" fill="#fefffe" d="M 547.5,921.5 C 548.708,922.234 550.041,922.567 551.5,922.5C 575.685,977.878 600.185,1033.21 625,1088.5C 649.879,1033.5 674.546,978.503 699,923.5C 700.085,922.707 701.252,922.04 702.5,921.5C 712.167,922.167 721.833,922.833 731.5,923.5C 732.667,992.164 732.833,1060.83 732,1129.5C 731.5,1130 731,1130.5 730.5,1131C 720.589,1131.82 710.756,1131.65 701,1130.5C 700.667,1083.17 700.333,1035.83 700,988.5C 678.93,1035.88 657.764,1083.21 636.5,1130.5C 628.942,1131.81 621.442,1131.81 614,1130.5C 592.726,1083.62 571.726,1036.62 551,989.5C 550.667,1036.17 550.333,1082.83 550,1129.5C 549.5,1130 549,1130.5 548.5,1131C 538.833,1131.67 529.167,1131.67 519.5,1131C 518.335,1061.9 518.169,992.737 519,923.5C 528.598,922.845 538.098,922.178 547.5,921.5 Z"/></g>
<g><path style="opacity:0.927" fill="#fefffe" d="M 1565.5,921.5 C 1577.08,921.179 1588.58,921.512 1600,922.5C 1624.24,990.532 1648.9,1058.53 1674,1126.5C 1674.72,1128.11 1674.55,1129.61 1673.5,1131C 1662.84,1131.5 1652.17,1131.67 1641.5,1131.5C 1636.87,1116.18 1631.54,1101.02 1625.5,1086C 1596.49,1085.17 1567.49,1085.33 1538.5,1086.5C 1532.97,1101.1 1527.63,1115.77 1522.5,1130.5C 1511.94,1131.82 1501.44,1131.82 1491,1130.5C 1490.33,1128.83 1490.33,1127.17 1491,1125.5C 1515.61,1057.3 1540.45,989.301 1565.5,921.5 Z M 1581.5,963.5 C 1592.85,995.309 1604.52,1027.14 1616.5,1059C 1593.5,1059.67 1570.5,1059.67 1547.5,1059C 1559.91,1027.61 1571.24,995.775 1581.5,963.5 Z"/></g>
</svg>
